<?xml version="1.0" encoding="UTF-8"?>
<svg id="Layer_1" data-name="Layer 1" xmlns="http://www.w3.org/2000/svg" viewBox="0 0 1133.59 300">
  <defs>
    <style>
      .cls-1 {
        fill: #ea6400;
      }
    </style>
  </defs>
  <rect class="cls-1" x="800.4" y="121.28" width="66.4" height="12.66"/>
  <rect class="cls-1" x="666.8" y="173.8" width="66.8" height="9.76"/>
  <rect class="cls-1" x="800.4" y="94.59" width="66.4" height="15.45"/>
  <rect class="cls-1" x="800.4" y="66.8" width="66.4" height="17.51"/>
  <path class="cls-1" d="M743.4,256.8c-.61-.62-1.19-1.26-1.74-1.91h-71.37c.53,1.54,1.11,3.06,1.76,4.56h74.24c-.99-.82-1.95-1.7-2.89-2.65Z"/>
  <rect class="cls-1" x="666.8" y="196.56" width="66.8" height="8.38"/>
  <rect class="cls-1" x="666.8" y="215.94" width="66.8" height="6.96"/>
  <path class="cls-1" d="M735.28,243.82h-67.69c.27,1.76.6,3.5,1,5.21h68.97c-.92-1.68-1.68-3.41-2.28-5.21Z"/>
  <path class="cls-1" d="M733.6,233.2v-1.31h-66.8v1.31c0,1.29.04,2.57.11,3.83h66.9c-.13-1.25-.21-2.53-.21-3.83Z"/>
  <path class="cls-1" d="M866.8,231.89h-66.4v1.31c0,1.3-.08,2.58-.21,3.83h66.61v-5.14Z"/>
  <path class="cls-1" d="M866.8,263.89h-86.15c-4.21,1.93-8.83,2.91-13.85,2.91s-9.4-.98-13.54-2.91h-79.08c.7,1.32,1.45,2.62,2.25,3.89h123.84c.04-.33.09-.65.13-.99v.99h66.4v-3.89Z"/>
  <rect class="cls-1" x="666.8" y="147.67" width="66.8" height="11.13"/>
  <rect class="cls-1" x="800.4" y="271.89" width="66.4" height="3.3"/>
  <rect class="cls-1" x="800.4" y="277.89" width="66.4" height="2.51"/>
  <rect class="cls-1" x="800.4" y="196.56" width="66.4" height="8.38"/>
  <rect class="cls-1" x="800.4" y="173.8" width="66.4" height="9.76"/>
  <path class="cls-1" d="M866.8,243.82h-68.08c-.6,1.8-1.36,3.53-2.28,5.21h70.36v-5.21Z"/>
  <rect class="cls-1" x="800.4" y="147.67" width="66.4" height="11.13"/>
  <rect class="cls-1" x="800.4" y="215.94" width="66.4" height="6.96"/>
  <path class="cls-1" d="M866.8,254.89h-74.46c-.55.65-1.13,1.28-1.74,1.91-.94.95-1.9,1.83-2.9,2.65h79.1v-4.56Z"/>
  <rect class="cls-1" x="533.6" y="287.04" width="66.8" height="1.97"/>
  <path class="cls-1" d="M733.6,300h33.2c3.34,0,6.42-.32,9.27-.96h-54.02c3.73.63,7.57.96,11.54.96Z"/>
  <rect class="cls-1" x="533.6" y="294.04" width="66.8" height="1.37"/>
  <rect class="cls-1" x="533.6" y="296.54" width="66.8" height="1.37"/>
  <rect class="cls-1" x="533.6" y="299.04" width="66.8" height=".96"/>
  <rect class="cls-1" x="533.6" y="290.83" width="66.8" height="1.59"/>
  <rect class="cls-1" x="533.6" y="271.89" width="66.8" height="3.3"/>
  <rect class="cls-1" x="533.6" y="282.89" width="66.8" height="1.97"/>
  <rect class="cls-1" x="800.4" y="282.89" width="66.4" height="1.97"/>
  <rect class="cls-1" x="533.6" y="277.89" width="66.8" height="2.51"/>
  <path class="cls-1" d="M686.6,280.4s0,0,0,0h110.55c.32-.81.62-1.65.9-2.51h-113.88c.78.85,1.59,1.68,2.42,2.51Z"/>
  <path class="cls-1" d="M681.81,275.19h117.03c.28-1.06.53-2.16.75-3.3h-120.35c.82,1.11,1.67,2.22,2.57,3.3Z"/>
  <rect class="cls-1" x="666.8" y="66.8" width="66.8" height="17.51"/>
  <rect class="cls-1" x="533.6" y="263.89" width="66.8" height="3.89"/>
  <path class="cls-1" d="M716.68,297.91h63.35c1.11-.4,2.17-.86,3.2-1.37h-71.13c1.51.51,3.04.98,4.59,1.37Z"/>
  <rect class="cls-1" x="666.8" y="121.28" width="66.8" height="12.66"/>
  <path class="cls-1" d="M709.05,295.41h76.21c.69-.43,1.36-.89,2.01-1.37h-81.4c1.05.49,2.11.95,3.18,1.37Z"/>
  <path class="cls-1" d="M702.63,292.42h86.59c.55-.51,1.09-1.03,1.6-1.59h-90.98c.92.56,1.84,1.09,2.78,1.59Z"/>
  <path class="cls-1" d="M691.51,284.86h103.58c.35-.64.69-1.29,1.01-1.97h-106.86c.75.68,1.51,1.33,2.27,1.97Z"/>
  <path class="cls-1" d="M697.02,289.01h95.35c.49-.63.97-1.28,1.42-1.97h-99.54c.91.68,1.83,1.34,2.76,1.97Z"/>
  <rect class="cls-1" x="666.8" y="94.59" width="66.8" height="15.45"/>
  <path class="cls-1" d="M1133.39,243.82h-66.19v5.21h66.38c-.02-1.77-.08-3.51-.19-5.21Z"/>
  <path class="cls-1" d="M1116.99,204c-2.7-2.74-5.74-5.21-9.11-7.44h-148.47c-3.32,2.17-6.33,4.58-9.02,7.24-.37.37-.73.76-1.09,1.14h66.91c5.15-3.28,10.94-4.94,17.37-4.94s12.53,1.65,17.74,4.94h66.54c-.29-.31-.57-.63-.88-.94Z"/>
  <path class="cls-1" d="M1131.73,231.89h-64.56c.02.43.03.87.03,1.31v3.83h65.48c-.26-1.76-.58-3.47-.95-5.14Z"/>
  <path class="cls-1" d="M1127.46,147.67h-63.39c-1.61,3.37-3.83,6.48-6.67,9.33-.64.64-1.29,1.23-1.95,1.8h65.11c2.74-3.39,5.04-7.1,6.91-11.13Z"/>
  <path class="cls-1" d="M1125.86,215.94h-63.54c1.39,2.2,2.48,4.52,3.28,6.96h63.45c-.92-2.42-1.98-4.74-3.19-6.96Z"/>
  <path class="cls-1" d="M1067.19,183.2c13.58-1.47,25.07-4.61,34.48-9.4h-135.85c9.46,4.79,20.98,7.92,34.56,9.4-.91.11-1.79.24-2.68.36h72.16c-.89-.12-1.77-.25-2.68-.36Z"/>
  <rect class="cls-1" x="1067.19" y="66.8" width="66.38" height="17.51"/>
  <path class="cls-1" d="M1010.19,157c-2.85-2.84-5.07-5.95-6.68-9.33h-63.72c1.9,4.03,4.23,7.74,7,11.13h65.34c-.66-.57-1.31-1.17-1.94-1.8Z"/>
  <rect class="cls-1" x="1067.19" y="94.59" width="66.38" height="15.45"/>
  <path class="cls-1" d="M1133.48,121.28h-66.29v11.92c0,.25-.01.49-.02.73h64.77c.82-3.99,1.33-8.21,1.53-12.66Z"/>
  <rect class="cls-1" x="1067.19" y="282.89" width="66.4" height="1.97"/>
  <rect class="cls-1" x="1067.19" y="290.83" width="66.4" height="1.59"/>
  <rect class="cls-1" x="1067.19" y="287.04" width="66.4" height="1.97"/>
  <rect class="cls-1" x="1067.19" y="294.04" width="66.4" height="1.37"/>
  <rect class="cls-1" x="1067.19" y="299.04" width="66.4" height=".96"/>
  <path class="cls-1" d="M1000.39,133.2v-11.92h-66.68c.21,4.45.72,8.67,1.55,12.66h65.15c0-.24-.02-.49-.02-.73Z"/>
  <rect class="cls-1" x="1067.19" y="271.89" width="66.4" height="3.3"/>
  <rect class="cls-1" x="1067.19" y="263.89" width="66.4" height="3.89"/>
  <rect class="cls-1" x="1067.19" y="254.89" width="66.4" height="4.56"/>
  <rect class="cls-1" x="1067.19" y="277.89" width="66.4" height="2.51"/>
  <rect class="cls-1" x="933.59" y="296.54" width="66.8" height="1.37"/>
  <rect class="cls-1" x="933.59" y="294.04" width="66.8" height="1.37"/>
  <rect class="cls-1" x="800.4" y="287.04" width="66.4" height="1.97"/>
  <rect class="cls-1" x="933.59" y="287.04" width="66.8" height="1.97"/>
  <rect class="cls-1" x="933.59" y="299.04" width="66.8" height=".96"/>
  <rect class="cls-1" x="933.59" y="290.83" width="66.8" height="1.59"/>
  <rect class="cls-1" x="800.4" y="290.83" width="66.4" height="1.59"/>
  <rect class="cls-1" x="800.4" y="299.04" width="66.4" height=".96"/>
  <rect class="cls-1" x="800.4" y="294.04" width="66.4" height="1.37"/>
  <rect class="cls-1" x="800.4" y="296.54" width="66.4" height="1.37"/>
  <rect class="cls-1" x="933.59" y="282.89" width="66.8" height="1.97"/>
  <path class="cls-1" d="M934.5,237.03h65.89v-3.83c0-.44.01-.87.03-1.31h-64.99c-.37,1.67-.68,3.38-.93,5.14Z"/>
  <path class="cls-1" d="M938.09,222.89h63.89c.79-2.43,1.88-4.75,3.27-6.96h-63.98c-1.2,2.21-2.26,4.53-3.19,6.96Z"/>
  <path class="cls-1" d="M933.61,249.03h66.78v-5.21h-66.59c-.11,1.7-.17,3.44-.19,5.21Z"/>
  <rect class="cls-1" x="933.59" y="66.8" width="66.8" height="17.51"/>
  <rect class="cls-1" x="933.59" y="263.89" width="66.8" height="3.89"/>
  <rect class="cls-1" x="933.59" y="271.89" width="66.8" height="3.3"/>
  <rect class="cls-1" x="933.59" y="254.89" width="66.8" height="4.56"/>
  <rect class="cls-1" x="933.59" y="277.89" width="66.8" height="2.51"/>
  <rect class="cls-1" x="933.59" y="94.59" width="66.8" height="15.45"/>
  <rect class="cls-1" x="1067.19" y="296.54" width="66.4" height="1.37"/>
  <path class="cls-1" d="M76.6,256.8c-.61-.62-1.19-1.26-1.74-1.91H3.48c.53,1.54,1.11,3.06,1.76,4.56h74.24c-.99-.82-1.95-1.7-2.89-2.65Z"/>
  <path class="cls-1" d="M68.48,243.82H.79c.27,1.76.6,3.5,1,5.21h68.97c-.92-1.68-1.68-3.41-2.28-5.21Z"/>
  <path class="cls-1" d="M200,263.89h-86.15c-4.21,1.93-8.83,2.91-13.85,2.91s-9.4-.98-13.54-2.91H7.38c.7,1.32,1.45,2.62,2.25,3.89h123.84c.04-.33.09-.65.13-.99v.99h66.4v-3.89Z"/>
  <path class="cls-1" d="M66.8,233.2v-1.31H.05v3.71c.02.48.03.95.05,1.43h66.9c-.13-1.25-.21-2.53-.21-3.83Z"/>
  <rect class="cls-1" x="133.6" y="277.89" width="66.4" height="2.51"/>
  <rect class="cls-1" x="133.6" y="271.89" width="66.4" height="3.3"/>
  <rect class="cls-1" x="133.6" y="147.67" width="66.4" height="11.13"/>
  <path class="cls-1" d="M66.8,133.2c0-4.25.73-8.23,2.17-11.92H1.03c-.68,3.85-1.03,7.82-1.03,11.92v.73h66.8v-.73Z"/>
  <rect class="cls-1" x="133.6" y="121.28" width="66.4" height="12.66"/>
  <path class="cls-1" d="M76.6,109.8c6.53-6.53,14.33-9.8,23.4-9.8h33.6v10.03h66.4v-15.45H12.66c-3.63,4.85-6.48,10-8.55,15.45h72.26c.08-.08.15-.16.22-.23Z"/>
  <rect class="cls-1" x="133.6" y="282.89" width="66.4" height="1.97"/>
  <rect class="cls-1" x="400.4" y="299.04" width="66.4" height=".96"/>
  <rect class="cls-1" x="133.6" y="299.04" width="66.4" height=".96"/>
  <rect class="cls-1" x="400.4" y="296.54" width="66.4" height="1.37"/>
  <rect class="cls-1" x="400.4" y="294.04" width="66.4" height="1.37"/>
  <rect class="cls-1" x="133.6" y="173.8" width="66.4" height="9.76"/>
  <rect class="cls-1" x="133.6" y="296.54" width="66.4" height="1.37"/>
  <rect class="cls-1" x="133.6" y="287.04" width="66.4" height="1.97"/>
  <rect class="cls-1" x="133.6" y="290.83" width="66.4" height="1.59"/>
  <rect class="cls-1" x="133.6" y="294.04" width="66.4" height="1.37"/>
  <path class="cls-1" d="M66.8,300h33.2c3.34,0,6.42-.32,9.27-.96h-54.02c3.73.63,7.57.96,11.54.96Z"/>
  <path class="cls-1" d="M19.8,280.4s0,0,0,0h110.55c.32-.81.62-1.65.9-2.51H17.38c.78.85,1.59,1.68,2.42,2.51Z"/>
  <rect class="cls-1" x="133.6" y="35.43" width="66.4" height="17.81"/>
  <path class="cls-1" d="M24.71,284.86h103.58c.35-.64.69-1.29,1.01-1.97H22.44c.75.68,1.51,1.33,2.27,1.97Z"/>
  <rect class="cls-1" x="133.6" width="66.4" height="22.54"/>
  <path class="cls-1" d="M15.01,275.19h117.03c.28-1.06.53-2.16.75-3.3H12.43c.82,1.11,1.67,2.22,2.57,3.3Z"/>
  <path class="cls-1" d="M30.22,289.01h95.35c.49-.63.97-1.28,1.42-1.97H27.46c.91.68,1.83,1.34,2.76,1.97Z"/>
  <rect class="cls-1" x="400.4" y="290.83" width="66.4" height="1.59"/>
  <path class="cls-1" d="M35.84,292.42h86.59c.55-.51,1.09-1.03,1.6-1.59H33.06c.92.56,1.84,1.09,2.78,1.59Z"/>
  <path class="cls-1" d="M49.89,297.91h63.35c1.11-.4,2.17-.86,3.2-1.37H45.29c1.51.51,3.04.98,4.59,1.37Z"/>
  <path class="cls-1" d="M42.25,295.41h76.21c.69-.43,1.36-.89,2.01-1.37H39.07c1.05.49,2.11.95,3.18,1.37Z"/>
  <path class="cls-1" d="M200,66.8H66.8c-17.14,0-32.06,5.84-44.79,17.51h177.99v-17.51Z"/>
  <path class="cls-1" d="M129.64,249.03h70.36v-5.21h-68.08c-.6,1.8-1.36,3.53-2.28,5.21Z"/>
  <path class="cls-1" d="M123.8,256.8c-.94.95-1.9,1.83-2.9,2.65h79.1v-4.56h-74.46c-.55.65-1.13,1.28-1.74,1.91Z"/>
  <rect class="cls-1" x="133.6" y="196.56" width="66.4" height="8.38"/>
  <rect class="cls-1" x="133.6" y="215.94" width="66.4" height="6.96"/>
  <path class="cls-1" d="M133.6,233.2c0,1.3-.08,2.58-.21,3.83h66.61v-5.14h-66.4v1.31Z"/>
  <rect class="cls-1" x=".05" y="147.67" width="66.75" height="11.13"/>
  <rect class="cls-1" x=".05" y="196.56" width="66.75" height="8.38"/>
  <rect class="cls-1" x=".05" y="215.94" width="66.75" height="6.96"/>
  <rect class="cls-1" x=".05" y="173.8" width="66.75" height="9.76"/>
  <rect class="cls-1" x="266.8" y="243.82" width="66.8" height="5.21"/>
  <rect class="cls-1" x="266.8" y="147.67" width="66.8" height="11.13"/>
  <rect class="cls-1" x="266.8" y="173.8" width="66.8" height="9.76"/>
  <path class="cls-1" d="M266.8,133.93h66.8v-.73c0-4.25.73-8.23,2.17-11.92h-68.97v12.66Z"/>
  <rect class="cls-1" x="266.8" y="66.8" width="66.8" height="17.51"/>
  <rect class="cls-1" x="266.8" y="196.56" width="66.8" height="8.38"/>
  <rect class="cls-1" x="266.8" y="254.89" width="66.8" height="4.56"/>
  <rect class="cls-1" x="533.6" y="254.89" width="66.8" height="4.56"/>
  <rect class="cls-1" x="266.8" y="215.94" width="66.8" height="6.96"/>
  <path class="cls-1" d="M400.4,66.8h-33.6c-9.6,0-17.2,2.74-22.8,8.2-2.56,2.5-4.67,5.61-6.34,9.31h107.92c-10.62-11.66-25.68-17.51-45.18-17.51Z"/>
  <rect class="cls-1" x="266.8" y="231.89" width="66.8" height="5.14"/>
  <rect class="cls-1" x="533.6" y="196.56" width="66.8" height="8.38"/>
  <rect class="cls-1" x="533.6" y="231.89" width="66.8" height="5.14"/>
  <rect class="cls-1" x="266.8" y="263.89" width="66.8" height="3.89"/>
  <rect class="cls-1" x="533.6" y="215.94" width="66.8" height="6.96"/>
  <rect class="cls-1" x="400.4" y="287.04" width="66.4" height="1.97"/>
  <path class="cls-1" d="M587.74,94.59h-253.28c-.35,1.73-.64,3.53-.86,5.41v-5.41h-66.8v15.45h76.38c.08-.08.15-.16.22-.23,6.53-6.53,14.33-9.8,23.4-9.8s17.26,3.27,23.8,9.8c.08.08.15.16.22.23h85.75c.08-.08.15-.16.23-.23,6.66-6.53,14.53-9.8,23.6-9.8s16.86,3.34,23.4,10c.01.01.02.02.03.03h72.46c-2.07-5.45-4.91-10.6-8.54-15.45Z"/>
  <path class="cls-1" d="M600.4,133.2c0-4.11-.36-8.08-1.03-11.92h-68.03c1.5,3.73,2.26,7.7,2.26,11.92v.73h66.8v-.73Z"/>
  <path class="cls-1" d="M533.6,66.8h-33.2c-11.47,0-21.34,1.94-29.6,5.8-6,2.81-11.22,6.72-15.68,11.71h123.27c-12.73-11.66-27.66-17.51-44.79-17.51Z"/>
  <rect class="cls-1" x="533.6" y="147.67" width="66.8" height="11.13"/>
  <rect class="cls-1" x="533.6" y="173.8" width="66.8" height="9.76"/>
  <rect class="cls-1" x="533.6" y="243.82" width="66.8" height="5.21"/>
  <rect class="cls-1" x="400.4" y="231.89" width="66.4" height="5.14"/>
  <rect class="cls-1" x="266.8" y="271.89" width="66.8" height="3.3"/>
  <rect class="cls-1" x="400.4" y="243.82" width="66.4" height="5.21"/>
  <rect class="cls-1" x="400.4" y="215.94" width="66.4" height="6.96"/>
  <rect class="cls-1" x="400.4" y="196.56" width="66.4" height="8.38"/>
  <rect class="cls-1" x="400.4" y="254.89" width="66.4" height="4.56"/>
  <rect class="cls-1" x="400.4" y="277.89" width="66.4" height="2.51"/>
  <rect class="cls-1" x="400.4" y="263.89" width="66.4" height="3.89"/>
  <rect class="cls-1" x="400.4" y="282.89" width="66.4" height="1.97"/>
  <rect class="cls-1" x="400.4" y="271.89" width="66.4" height="3.3"/>
  <rect class="cls-1" x="400.4" y="173.8" width="66.4" height="9.76"/>
  <rect class="cls-1" x="266.8" y="282.89" width="66.8" height="1.97"/>
  <rect class="cls-1" x="266.8" y="287.04" width="66.8" height="1.97"/>
  <rect class="cls-1" x="266.8" y="277.89" width="66.8" height="2.51"/>
  <rect class="cls-1" x="266.8" y="290.83" width="66.8" height="1.59"/>
  <rect class="cls-1" x="266.8" y="299.04" width="66.8" height=".96"/>
  <path class="cls-1" d="M400.4,133.2v.73h66.4v-.73c0-4.25.74-8.23,2.21-11.92h-70.78c1.44,3.7,2.17,7.67,2.17,11.92Z"/>
  <rect class="cls-1" x="400.4" y="147.67" width="66.4" height="11.13"/>
  <rect class="cls-1" x="266.8" y="296.54" width="66.8" height="1.37"/>
  <rect class="cls-1" x="266.8" y="294.04" width="66.8" height="1.37"/>
</svg>