<?xml version="1.0" encoding="UTF-8"?>
<svg xmlns="http://www.w3.org/2000/svg" viewBox="-15 -15 230 330">
  <defs>
    <style>
      .cls-1 {
        fill: #ea6400;
      }
    </style>
  </defs>
  <!-- Left side of "d" (x=0.05) -->
  <rect class="cls-1" x=".05" y="147.67" width="66.75" height="11.13"/>
  <rect class="cls-1" x=".05" y="196.56" width="66.75" height="8.38"/>
  <rect class="cls-1" x=".05" y="215.94" width="66.75" height="6.96"/>
  <rect class="cls-1" x=".05" y="173.8" width="66.75" height="9.76"/>
  <!-- Paths for left/connecting portions of "d" -->
  <path class="cls-1" d="M76.6,256.8c-.61-.62-1.19-1.26-1.74-1.91H3.48c.53,1.54,1.11,3.06,1.76,4.56h74.24c-.99-.82-1.95-1.7-2.89-2.65Z"/>
  <path class="cls-1" d="M68.48,243.82H.79c.27,1.76.6,3.5,1,5.21h68.97c-.92-1.68-1.68-3.41-2.28-5.21Z"/>
  <path class="cls-1" d="M200,263.89h-86.15c-4.21,1.93-8.83,2.91-13.85,2.91s-9.4-.98-13.54-2.91H7.38c.7,1.32,1.45,2.62,2.25,3.89h123.84c.04-.33.09-.65.13-.99v.99h66.4v-3.89Z"/>
  <path class="cls-1" d="M66.8,233.2v-1.31H.05v3.71c.02.48.03.95.05,1.43h66.9c-.13-1.25-.21-2.53-.21-3.83Z"/>
  <path class="cls-1" d="M66.8,133.2c0-4.25.73-8.23,2.17-11.92H1.03c-.68,3.85-1.03,7.82-1.03,11.92v.73h66.8v-.73Z"/>
  <path class="cls-1" d="M76.6,109.8c6.53-6.53,14.33-9.8,23.4-9.8h33.6v10.03h66.4v-15.45H12.66c-3.63,4.85-6.48,10-8.55,15.45h72.26c.08-.08.15-.16.22-.23Z"/>
  <path class="cls-1" d="M66.8,300h33.2c3.34,0,6.42-.32,9.27-.96h-54.02c3.73.63,7.57.96,11.54.96Z"/>
  <path class="cls-1" d="M19.8,280.4s0,0,0,0h110.55c.32-.81.62-1.65.9-2.51H17.38c.78.85,1.59,1.68,2.42,2.51Z"/>
  <path class="cls-1" d="M24.71,284.86h103.58c.35-.64.69-1.29,1.01-1.97H22.44c.75.68,1.51,1.33,2.27,1.97Z"/>
  <path class="cls-1" d="M15.01,275.19h117.03c.28-1.06.53-2.16.75-3.3H12.43c.82,1.11,1.67,2.22,2.57,3.3Z"/>
  <path class="cls-1" d="M30.22,289.01h95.35c.49-.63.97-1.28,1.42-1.97H27.46c.91.68,1.83,1.34,2.76,1.97Z"/>
  <path class="cls-1" d="M35.84,292.42h86.59c.55-.51,1.09-1.03,1.6-1.59H33.06c.92.56,1.84,1.09,2.78,1.59Z"/>
  <path class="cls-1" d="M49.89,297.91h63.35c1.11-.4,2.17-.86,3.2-1.37H45.29c1.51.51,3.04.98,4.59,1.37Z"/>
  <path class="cls-1" d="M42.25,295.41h76.21c.69-.43,1.36-.89,2.01-1.37H39.07c1.05.49,2.11.95,3.18,1.37Z"/>
  <path class="cls-1" d="M200,66.8H66.8c-17.14,0-32.06,5.84-44.79,17.51h177.99v-17.51Z"/>
  <!-- Right side of "d" (x=133.6) -->
  <rect class="cls-1" x="133.6" y="277.89" width="66.4" height="2.51"/>
  <rect class="cls-1" x="133.6" y="271.89" width="66.4" height="3.3"/>
  <rect class="cls-1" x="133.6" y="147.67" width="66.4" height="11.13"/>
  <rect class="cls-1" x="133.6" y="121.28" width="66.4" height="12.66"/>
  <rect class="cls-1" x="133.6" y="282.89" width="66.4" height="1.97"/>
  <rect class="cls-1" x="133.6" y="299.04" width="66.4" height=".96"/>
  <rect class="cls-1" x="133.6" y="173.8" width="66.4" height="9.76"/>
  <rect class="cls-1" x="133.6" y="296.54" width="66.4" height="1.37"/>
  <rect class="cls-1" x="133.6" y="287.04" width="66.4" height="1.97"/>
  <rect class="cls-1" x="133.6" y="290.83" width="66.4" height="1.59"/>
  <rect class="cls-1" x="133.6" y="294.04" width="66.4" height="1.37"/>
  <rect class="cls-1" x="133.6" y="35.43" width="66.4" height="17.81"/>
  <rect class="cls-1" x="133.6" width="66.4" height="22.54"/>
  <rect class="cls-1" x="133.6" y="196.56" width="66.4" height="8.38"/>
  <rect class="cls-1" x="133.6" y="215.94" width="66.4" height="6.96"/>
  <!-- Paths for right/connecting portions of "d" -->
  <path class="cls-1" d="M129.64,249.03h70.36v-5.21h-68.08c-.6,1.8-1.36,3.53-2.28,5.21Z"/>
  <path class="cls-1" d="M123.8,256.8c-.94.95-1.9,1.83-2.9,2.65h79.1v-4.56h-74.46c-.55.65-1.13,1.28-1.74,1.91Z"/>
  <path class="cls-1" d="M133.6,233.2c0,1.3-.08,2.58-.21,3.83h66.61v-5.14h-66.4v1.31Z"/>
</svg>
